<svg width="20" height="21" viewBox="0 0 20 21" fill="none" xmlns="http://www.w3.org/2000/svg">
<g clip-path="url(#clip0_1_612)">
<path d="M17.2184 14.4832C18.231 12.7316 18.5713 10.6713 18.1757 8.68709C17.7801 6.70293 16.6757 4.93064 15.0688 3.70131C13.4619 2.47198 11.4624 1.86971 9.44384 2.007C7.42528 2.14429 5.52575 3.01175 4.10009 4.44734C2.67444 5.88292 1.82017 7.78843 1.69689 9.80789C1.57361 11.8273 2.18975 13.8226 3.4302 15.421C4.67065 17.0193 6.45056 18.1114 8.43742 18.4932C10.4243 18.875 12.4822 18.5204 14.2267 17.4957L18.3384 18.6432L17.2184 14.4832Z" stroke="#F3F5F7" strokeWidth="1.66667" stroke-linejoin="round"/>
</g>
<defs>
<clipPath id="clip0_1_612">
<rect width="20" height="20" fill="white" transform="translate(0.0050354 0.310059)"/>
</clipPath>
</defs>
</svg>
