<svg width="21" height="21" viewBox="0 0 21 21" fill="none" xmlns="http://www.w3.org/2000/svg">
<path fill-rule="evenodd" clip-rule="evenodd" d="M2.45664 8.40391C2.16435 6.32415 2.01821 5.28428 2.31132 4.43303C2.56914 3.68425 3.05739 3.03632 3.7061 2.58209C4.44357 2.0657 5.48346 1.91955 7.56322 1.62726L9.70883 1.32572C11.7886 1.03343 12.8284 0.887287 13.6797 1.18039C14.4284 1.43822 15.0764 1.92647 15.5306 2.57518C15.7192 2.84445 15.8583 3.15404 15.9733 3.53984C15.5779 3.52909 15.138 3.52559 14.644 3.52445C14.6028 3.44158 14.5575 3.36467 14.5067 3.29215C14.2038 2.85968 13.7719 2.53418 13.2727 2.3623C12.7052 2.16689 12.012 2.26432 10.6255 2.45918L6.99448 2.96948C5.60798 3.16434 4.91473 3.26177 4.42307 3.60603C3.9906 3.90885 3.6651 4.3408 3.49322 4.83999C3.29781 5.40749 3.39524 6.10074 3.5901 7.48724L4.1004 11.1182C4.25148 12.1932 4.34399 12.8515 4.53837 13.3222C4.53894 14.0866 4.54249 14.7281 4.56492 15.278C4.23734 15.0374 3.94902 14.7437 3.71301 14.4066C3.19662 13.6692 3.05047 12.6292 2.75818 10.5495L2.45664 8.40391Z" fill="#777777"/>
<mask id="mask0_23_23" style="mask-type:luminance" maskUnits="userSpaceOnUse" x="5" y="4" width="15" height="15">
<path d="M16.205 4.7735H9.53833C7.46726 4.7735 5.78833 6.45243 5.78833 8.5235V15.1902C5.78833 17.2612 7.46726 18.9402 9.53833 18.9402H16.205C18.2761 18.9402 19.955 17.2612 19.955 15.1902V8.5235C19.955 6.45243 18.2761 4.7735 16.205 4.7735Z" fill="white"/>
</mask>
<g mask="url(#mask0_23_23)">
<path d="M16.205 5.3985H9.53833C7.81244 5.3985 6.41333 6.79761 6.41333 8.5235V15.1902C6.41333 16.9161 7.81244 18.3152 9.53833 18.3152H16.205C17.9309 18.3152 19.33 16.9161 19.33 15.1902V8.5235C19.33 6.79761 17.9309 5.3985 16.205 5.3985Z" stroke="#777777" stroke-width="1.25"/>
<path d="M6.33374 15.3985L7.94693 13.7853C8.42016 13.3121 9.18216 13.2955 9.67549 13.7477L11.2101 15.1545C11.539 15.456 12.047 15.4449 12.3625 15.1294L15.6367 11.8553C16.1247 11.3672 16.9162 11.3672 17.4044 11.8552L19.1768 13.6277" stroke="#777777" stroke-width="1.25" stroke-linejoin="round"/>
<path d="M9.7465 9.77352C10.3218 9.77352 10.7882 9.30715 10.7882 8.73185C10.7882 8.15656 10.3218 7.69019 9.7465 7.69019C9.1712 7.69019 8.70483 8.15656 8.70483 8.73185C8.70483 9.30715 9.1712 9.77352 9.7465 9.77352Z" fill="#777777"/>
</g>
</svg>
