<svg width="25" height="25" viewBox="0 0 25 25" fill="none" xmlns="http://www.w3.org/2000/svg">
<path d="M12.1284 22.8207C17.6513 22.8207 22.1284 18.3435 22.1284 12.8207C22.1284 7.29783 17.6513 2.82068 12.1284 2.82068C6.60557 2.82068 2.12842 7.29783 2.12842 12.8207C2.12842 18.3435 6.60557 22.8207 12.1284 22.8207Z" stroke="white" strokeWidth="2"/>
<path fill-rule="evenodd" clip-rule="evenodd" d="M7.62842 14.3207C6.79999 14.3207 6.12842 13.6491 6.12842 12.8207C6.12842 11.9923 6.79999 11.3207 7.62842 11.3207C8.45685 11.3207 9.12842 11.9923 9.12842 12.8207C9.12842 13.6491 8.45685 14.3207 7.62842 14.3207Z" fill="white"/>
<path fill-rule="evenodd" clip-rule="evenodd" d="M12.1284 14.3207C11.3 14.3207 10.6284 13.6491 10.6284 12.8207C10.6284 11.9923 11.3 11.3207 12.1284 11.3207C12.9568 11.3207 13.6284 11.9923 13.6284 12.8207C13.6284 13.6491 12.9568 14.3207 12.1284 14.3207Z" fill="white"/>
<path fill-rule="evenodd" clip-rule="evenodd" d="M16.6284 14.3207C15.8 14.3207 15.1284 13.6491 15.1284 12.8207C15.1284 11.9923 15.8 11.3207 16.6284 11.3207C17.4568 11.3207 18.1284 11.9923 18.1284 12.8207C18.1284 13.6491 17.4568 14.3207 16.6284 14.3207Z" fill="white"/>
</svg>
