<svg width="20" height="21" viewBox="0 0 20 21" fill="none" xmlns="http://www.w3.org/2000/svg">
<rect x="1.00504" y="1.97998" width="18" height="18" rx="9" fill="white"/>
<rect x="1.00504" y="1.97998" width="18" height="18" rx="9" stroke="#101010" stroke-width="2"/>
<g clip-path="url(#clip0_1_642)">
<path d="M10.0002 15.1489C9.64859 15.1489 9.35563 14.8462 9.35563 14.5142V11.6089H6.50895C6.17692 11.6089 5.86929 11.3159 5.86929 10.9595C5.86929 10.6079 6.17692 10.3101 6.50895 10.3101H9.35563V7.40479C9.35563 7.06299 9.64859 6.77002 10.0002 6.77002C10.3566 6.77002 10.6496 7.06299 10.6496 7.40479V10.3101H13.4962C13.838 10.3101 14.1359 10.6079 14.1359 10.9595C14.1359 11.3159 13.838 11.6089 13.4962 11.6089H10.6496V14.5142C10.6496 14.8462 10.3566 15.1489 10.0002 15.1489Z" fill="#101010"/>
</g>
<defs>
<clipPath id="clip0_1_642">
<rect width="10" height="10" fill="white" transform="translate(5.00504 5.97998)"/>
</clipPath>
</defs>
</svg>
