<svg width="20" height="21" viewBox="0 0 20 21" fill="none" xmlns="http://www.w3.org/2000/svg">
<g clip-path="url(#clip0_1_614)">
<path d="M16.67 8.22408C16.449 8.22408 16.2371 8.31187 16.0808 8.46815C15.9245 8.62443 15.8367 8.8364 15.8367 9.05741V12.5807C15.8358 13.3032 15.5484 13.9958 15.0376 14.5066C14.5267 15.0175 13.8341 15.3049 13.1117 15.3057H8.6842L10.1767 13.8166C10.3287 13.6596 10.413 13.4492 10.4115 13.2307C10.4099 13.0122 10.3225 12.8031 10.1682 12.6483C10.0139 12.4936 9.80505 12.4057 9.58654 12.4035C9.36804 12.4013 9.15742 12.485 9.00003 12.6366L6.08004 15.5491C5.92375 15.7054 5.83567 15.9172 5.83504 16.1382V16.1391C5.83504 16.1582 5.84504 16.1741 5.84587 16.1932C5.85034 16.3957 5.93448 16.5883 6.08004 16.7291L8.99837 19.6491C9.15554 19.8009 9.36604 19.8849 9.58454 19.883C9.80303 19.8811 10.012 19.7934 10.1666 19.6389C10.3211 19.4844 10.4087 19.2754 10.4106 19.0569C10.4125 18.8384 10.3285 18.6279 10.1767 18.4707L8.6792 16.9724H13.1109C14.2752 16.9711 15.3915 16.508 16.2148 15.6847C17.0381 14.8613 17.5012 13.7451 17.5025 12.5807V9.05741C17.5025 8.8364 17.4147 8.62443 17.2585 8.46815C17.1022 8.31187 16.891 8.22408 16.67 8.22408ZM11.3284 5.31074L9.83254 6.80658C9.75294 6.88345 9.68946 6.9754 9.64578 7.07707C9.60211 7.17874 9.57912 7.28809 9.57816 7.39874C9.5772 7.50939 9.59828 7.61912 9.64018 7.72154C9.68208 7.82395 9.74396 7.917 9.82221 7.99524C9.90045 8.07348 9.99349 8.13536 10.0959 8.17726C10.1983 8.21916 10.3081 8.24025 10.4187 8.23929C10.5294 8.23832 10.6387 8.21534 10.7404 8.17166C10.842 8.12799 10.934 8.0645 11.0109 7.98491L13.9275 5.06824C14.0839 4.91154 14.1717 4.69921 14.1717 4.47783C14.1717 4.25645 14.0839 4.04411 13.9275 3.88741L11.0109 0.970743C10.8537 0.818945 10.6432 0.734949 10.4247 0.736848C10.2062 0.738747 9.99719 0.826387 9.84269 0.980894C9.68818 1.1354 9.60054 1.34441 9.59864 1.56291C9.59674 1.78141 9.68074 1.99191 9.83254 2.14908L11.3275 3.64408H6.8967C5.73243 3.64562 4.61629 4.10881 3.79303 4.93207C2.96977 5.75533 2.50658 6.87147 2.50504 8.03574V11.5599C2.50504 11.7809 2.59283 11.9929 2.74911 12.1492C2.90539 12.3054 3.11735 12.3932 3.33837 12.3932C3.55938 12.3932 3.77134 12.3054 3.92762 12.1492C4.0839 11.9929 4.1717 11.7809 4.1717 11.5599V8.03574C4.1728 7.31322 4.46037 6.62062 4.97135 6.1098C5.48233 5.59898 6.17501 5.31162 6.89754 5.31074H11.3284Z" fill="#F3F5F7"/>
</g>
<defs>
<clipPath id="clip0_1_614">
<rect width="20" height="20" fill="white" transform="translate(0.0050354 0.310059)"/>
</clipPath>
</defs>
</svg>
