<svg width="17" height="16" viewBox="0 0 17 16" fill="none" xmlns="http://www.w3.org/2000/svg">
<path fill-rule="evenodd" clip-rule="evenodd" d="M2.87342 7.07677C2.87342 4.35783 5.07756 2.1537 7.7965 2.1537C10.5155 2.1537 12.7196 4.35783 12.7196 7.07677C12.7196 9.79573 10.5155 11.9999 7.7965 11.9999C5.07756 11.9999 2.87342 9.79573 2.87342 7.07677ZM7.7965 0.615234C4.22789 0.615234 1.33496 3.50816 1.33496 7.07677C1.33496 10.6454 4.22789 13.5383 7.7965 13.5383C9.30358 13.5383 10.6902 13.0223 11.7893 12.1574L14.4833 14.8515C14.7838 15.1518 15.2708 15.1518 15.5712 14.8515C15.8716 14.5511 15.8716 14.064 15.5712 13.7636L12.8771 11.0696C13.742 9.9705 14.258 8.58385 14.258 7.07677C14.258 3.50816 11.3651 0.615234 7.7965 0.615234Z" fill="#4D4D4D"/>
</svg>
