<svg width="72" height="25" viewBox="0 0 72 25" fill="none" xmlns="http://www.w3.org/2000/svg">
<rect x="0.899902" width="70.36" height="25" rx="12.5" fill="#1E1E1E"/>
<path d="M12.0405 9.77928V10.5301H8.94749V9.77928H12.0405ZM9.99435 8.38876H10.9725V14.083C10.9725 14.2769 11.0024 14.4232 11.0624 14.5219C11.1223 14.6206 11.1998 14.6858 11.295 14.7175C11.3902 14.7492 11.4924 14.7651 11.6016 14.7651C11.6827 14.7651 11.7673 14.758 11.8554 14.7439C11.9471 14.7263 12.0158 14.7122 12.0616 14.7016L12.0669 15.5C11.9894 15.5247 11.8872 15.5476 11.7603 15.5687C11.6369 15.5934 11.4871 15.6057 11.3109 15.6057C11.0712 15.6057 10.8509 15.5582 10.65 15.463C10.449 15.3678 10.2887 15.2092 10.1688 14.9871C10.0525 14.7616 9.99435 14.4584 9.99435 14.0778V8.38876ZM14.1659 7.37891V15.5H13.1878V7.37891H14.1659ZM13.9333 12.4229L13.5262 12.407C13.5297 12.0158 13.5879 11.6545 13.7007 11.3231C13.8134 10.9883 13.9721 10.6975 14.1765 10.4508C14.3809 10.204 14.6241 10.0137 14.9061 9.87974C15.1916 9.74227 15.5071 9.67354 15.8525 9.67354C16.1345 9.67354 16.3883 9.71231 16.6139 9.78986C16.8395 9.86388 17.0316 9.98372 17.1902 10.1494C17.3523 10.315 17.4757 10.5301 17.5603 10.7944C17.6449 11.0553 17.6872 11.3742 17.6872 11.7514V15.5H16.7038V11.7408C16.7038 11.4412 16.6597 11.2015 16.5716 11.0218C16.4835 10.8385 16.3548 10.7063 16.1856 10.6252C16.0164 10.5406 15.8085 10.4983 15.5617 10.4983C15.3185 10.4983 15.0965 10.5494 14.8956 10.6517C14.6982 10.7539 14.5272 10.8949 14.3827 11.0746C14.2417 11.2544 14.1307 11.4606 14.0496 11.6932C13.9721 11.9223 13.9333 12.1656 13.9333 12.4229ZM20.1299 10.6781V15.5H19.1517V9.77928H20.1034L20.1299 10.6781ZM21.9169 9.74756L21.9116 10.657C21.8306 10.6393 21.753 10.6288 21.679 10.6252C21.6085 10.6182 21.5274 10.6147 21.4358 10.6147C21.2102 10.6147 21.011 10.6499 20.8383 10.7204C20.6656 10.7909 20.5193 10.8896 20.3995 11.0165C20.2797 11.1434 20.1845 11.2949 20.114 11.4712C20.047 11.6439 20.003 11.8342 19.9818 12.0422L19.7069 12.2008C19.7069 11.8554 19.7404 11.5311 19.8073 11.228C19.8778 10.9248 19.9853 10.657 20.1299 10.4243C20.2744 10.1882 20.4577 10.0049 20.6797 9.87445C20.9053 9.74051 21.1732 9.67354 21.4834 9.67354C21.5539 9.67354 21.6349 9.68235 21.7266 9.69997C21.8182 9.71407 21.8817 9.72993 21.9169 9.74756ZM25.0892 15.6057C24.6909 15.6057 24.3296 15.5388 24.0053 15.4048C23.6846 15.2674 23.4079 15.0753 23.1753 14.8285C22.9462 14.5818 22.7699 14.2892 22.6465 13.9509C22.5232 13.6125 22.4615 13.2424 22.4615 12.8406V12.6185C22.4615 12.1532 22.5302 11.7391 22.6677 11.376C22.8052 11.0094 22.992 10.6992 23.2281 10.4455C23.4643 10.1917 23.7322 9.99958 24.0318 9.86916C24.3314 9.73875 24.6416 9.67354 24.9623 9.67354C25.3712 9.67354 25.7237 9.74403 26.0198 9.88503C26.3194 10.026 26.5643 10.2234 26.7547 10.4772C26.945 10.7274 27.086 11.0235 27.1777 11.3654C27.2693 11.7038 27.3151 12.0739 27.3151 12.4757V12.9146H23.0431V12.1162H26.337V12.0422C26.3229 11.7884 26.27 11.5417 26.1784 11.302C26.0903 11.0623 25.9493 10.8649 25.7554 10.7098C25.5615 10.5547 25.2972 10.4772 24.9623 10.4772C24.7403 10.4772 24.5358 10.5248 24.349 10.6199C24.1622 10.7116 24.0018 10.8491 23.8679 11.0323C23.7339 11.2156 23.63 11.4395 23.5559 11.7038C23.4819 11.9682 23.4449 12.2731 23.4449 12.6185V12.8406C23.4449 13.112 23.4819 13.3675 23.5559 13.6072C23.6335 13.8434 23.7445 14.0513 23.889 14.2311C24.0371 14.4108 24.2151 14.5518 24.423 14.6541C24.6345 14.7563 24.8742 14.8074 25.1421 14.8074C25.4875 14.8074 25.7801 14.7369 26.0198 14.5959C26.2594 14.4549 26.4692 14.2663 26.6489 14.0302L27.2411 14.5007C27.1177 14.6875 26.9609 14.8655 26.7705 15.0347C26.5802 15.2039 26.3458 15.3414 26.0673 15.4471C25.7924 15.5529 25.4664 15.6057 25.0892 15.6057ZM31.8304 14.5219V11.5769C31.8304 11.3513 31.7845 11.1557 31.6929 10.99C31.6048 10.8209 31.4708 10.6904 31.2911 10.5988C31.1113 10.5071 30.8892 10.4613 30.6249 10.4613C30.3782 10.4613 30.1614 10.5036 29.9746 10.5882C29.7913 10.6728 29.6468 10.7838 29.541 10.9213C29.4388 11.0588 29.3877 11.2068 29.3877 11.3654H28.4096C28.4096 11.161 28.4624 10.9583 28.5682 10.7574C28.6739 10.5565 28.8255 10.375 29.0229 10.2128C29.2238 10.0472 29.4635 9.91675 29.7419 9.82158C30.0239 9.72289 30.3376 9.67354 30.683 9.67354C31.099 9.67354 31.4655 9.74403 31.7828 9.88503C32.1035 10.026 32.3538 10.2393 32.5336 10.5248C32.7168 10.8068 32.8085 11.161 32.8085 11.5875V14.2522C32.8085 14.4426 32.8243 14.6452 32.8561 14.8603C32.8913 15.0753 32.9424 15.2603 33.0094 15.4154V15.5H31.989C31.9396 15.3872 31.9009 15.2374 31.8727 15.0506C31.8445 14.8603 31.8304 14.684 31.8304 14.5219ZM31.9995 12.0316L32.0101 12.7189H31.0214C30.743 12.7189 30.4945 12.7419 30.2759 12.7877C30.0574 12.83 29.8741 12.8952 29.7261 12.9833C29.578 13.0714 29.4652 13.1825 29.3877 13.3164C29.3101 13.4468 29.2714 13.6001 29.2714 13.7764C29.2714 13.9561 29.3119 14.12 29.393 14.2681C29.474 14.4161 29.5956 14.5342 29.7578 14.6223C29.9235 14.7069 30.1261 14.7492 30.3658 14.7492C30.6654 14.7492 30.9298 14.6858 31.1589 14.5589C31.388 14.432 31.5695 14.2769 31.7035 14.0936C31.8409 13.9103 31.915 13.7323 31.9255 13.5596L32.3432 14.0302C32.3185 14.1782 32.2516 14.3421 32.1423 14.5219C32.033 14.7016 31.8868 14.8744 31.7035 15.04C31.5237 15.2022 31.3087 15.3379 31.0584 15.4471C30.8117 15.5529 30.5332 15.6057 30.2231 15.6057C29.8353 15.6057 29.4952 15.53 29.2026 15.3784C28.9136 15.2268 28.688 15.0242 28.5259 14.7704C28.3673 14.5131 28.288 14.2258 28.288 13.9086C28.288 13.6019 28.3479 13.3323 28.4677 13.0996C28.5876 12.8635 28.7603 12.6678 28.9859 12.5127C29.2114 12.3541 29.4829 12.2343 29.8001 12.1532C30.1173 12.0722 30.4716 12.0316 30.8628 12.0316H31.9995ZM37.9529 14.3897V7.37891H38.9363V15.5H38.0375L37.9529 14.3897ZM34.1038 12.7031V12.5921C34.1038 12.155 34.1567 11.7584 34.2625 11.4024C34.3717 11.0429 34.5251 10.7345 34.7224 10.4772C34.9234 10.2199 35.1613 10.0225 35.4362 9.88503C35.7147 9.74403 36.0248 9.67354 36.3668 9.67354C36.7263 9.67354 37.04 9.73698 37.3079 9.86388C37.5793 9.98724 37.8084 10.1688 37.9952 10.4085C38.1855 10.6446 38.3353 10.9301 38.4446 11.265C38.5539 11.5998 38.6297 11.9787 38.672 12.4017V12.8881C38.6332 13.3076 38.5574 13.6847 38.4446 14.0196C38.3353 14.3544 38.1855 14.64 37.9952 14.8761C37.8084 15.1123 37.5793 15.2938 37.3079 15.4207C37.0365 15.5441 36.7192 15.6057 36.3562 15.6057C36.0213 15.6057 35.7147 15.5335 35.4362 15.389C35.1613 15.2445 34.9234 15.0418 34.7224 14.7809C34.5251 14.5201 34.3717 14.2135 34.2625 13.861C34.1567 13.505 34.1038 13.119 34.1038 12.7031ZM35.0873 12.5921V12.7031C35.0873 12.9886 35.1155 13.2565 35.1719 13.5067C35.2318 13.757 35.3234 13.9773 35.4468 14.1676C35.5702 14.358 35.727 14.5078 35.9173 14.617C36.1077 14.7228 36.335 14.7757 36.5994 14.7757C36.9237 14.7757 37.1898 14.7069 37.3978 14.5695C37.6092 14.432 37.7784 14.2505 37.9053 14.0249C38.0322 13.7993 38.1309 13.5543 38.2014 13.29V12.0158C38.1591 11.8219 38.0974 11.6351 38.0163 11.4553C37.9388 11.272 37.8366 11.1099 37.7097 10.9689C37.5863 10.8244 37.433 10.7098 37.2497 10.6252C37.0699 10.5406 36.8567 10.4983 36.61 10.4983C36.3421 10.4983 36.1112 10.5547 35.9173 10.6675C35.727 10.7768 35.5702 10.9284 35.4468 11.1222C35.3234 11.3126 35.2318 11.5346 35.1719 11.7884C35.1155 12.0387 35.0873 12.3065 35.0873 12.5921ZM43.7899 13.9826C43.7899 13.8416 43.7582 13.7112 43.6948 13.5913C43.6348 13.468 43.5097 13.3569 43.3194 13.2582C43.1326 13.156 42.8506 13.0679 42.4734 12.9939C42.1562 12.9269 41.8689 12.8476 41.6116 12.756C41.3578 12.6643 41.1411 12.5533 40.9613 12.4229C40.7851 12.2924 40.6494 12.1391 40.5542 11.9629C40.459 11.7866 40.4114 11.5804 40.4114 11.3443C40.4114 11.1187 40.4608 10.9054 40.5595 10.7045C40.6617 10.5036 40.8045 10.3256 40.9877 10.1705C41.1746 10.0154 41.3984 9.89384 41.6592 9.80572C41.92 9.7176 42.2108 9.67354 42.5316 9.67354C42.9898 9.67354 43.3811 9.75461 43.7053 9.91675C44.0296 10.0789 44.2781 10.2957 44.4508 10.5671C44.6236 10.835 44.7099 11.1328 44.7099 11.4606H43.7318C43.7318 11.302 43.6842 11.1487 43.589 11.0006C43.4974 10.8491 43.3617 10.7239 43.1819 10.6252C43.0057 10.5265 42.7889 10.4772 42.5316 10.4772C42.2602 10.4772 42.0399 10.5195 41.8707 10.6041C41.705 10.6852 41.5834 10.7891 41.5059 10.916C41.4319 11.0429 41.3949 11.1769 41.3949 11.3178C41.3949 11.4236 41.4125 11.5188 41.4477 11.6034C41.4865 11.6844 41.5535 11.7602 41.6486 11.8307C41.7438 11.8977 41.8777 11.9611 42.0505 12.021C42.2232 12.081 42.4435 12.1409 42.7114 12.2008C43.1802 12.3065 43.5661 12.4334 43.8692 12.5815C44.1724 12.7295 44.398 12.911 44.546 13.1261C44.694 13.3411 44.7681 13.6019 44.7681 13.9086C44.7681 14.1588 44.7152 14.3879 44.6095 14.5959C44.5072 14.8039 44.3574 14.9836 44.16 15.1352C43.9662 15.2832 43.7335 15.3995 43.4621 15.4841C43.1943 15.5652 42.8929 15.6057 42.558 15.6057C42.054 15.6057 41.6275 15.5159 41.2785 15.3361C40.9296 15.1563 40.6652 14.9237 40.4855 14.6382C40.3057 14.3527 40.2158 14.0513 40.2158 13.7341H41.1992C41.2133 14.002 41.2909 14.2152 41.4319 14.3738C41.5729 14.5289 41.7456 14.64 41.95 14.7069C42.1544 14.7704 42.3571 14.8021 42.558 14.8021C42.8259 14.8021 43.0497 14.7668 43.2295 14.6964C43.4128 14.6259 43.552 14.5289 43.6472 14.4056C43.7424 14.2822 43.7899 14.1412 43.7899 13.9826ZM46.0687 14.9819C46.0687 14.8162 46.1198 14.677 46.222 14.5642C46.3278 14.4479 46.4793 14.3897 46.6767 14.3897C46.8741 14.3897 47.0239 14.4479 47.1261 14.5642C47.2319 14.677 47.2848 14.8162 47.2848 14.9819C47.2848 15.144 47.2319 15.2815 47.1261 15.3943C47.0239 15.507 46.8741 15.5634 46.6767 15.5634C46.4793 15.5634 46.3278 15.507 46.222 15.3943C46.1198 15.2815 46.0687 15.144 46.0687 14.9819ZM49.886 11.0006V15.5H48.9079V9.77928H49.8332L49.886 11.0006ZM49.6534 12.4229L49.2463 12.407C49.2498 12.0158 49.308 11.6545 49.4208 11.3231C49.5336 10.9883 49.6922 10.6975 49.8966 10.4508C50.1011 10.204 50.3443 10.0137 50.6263 9.87974C50.9118 9.74227 51.2272 9.67354 51.5727 9.67354C51.8546 9.67354 52.1084 9.71231 52.334 9.78986C52.5596 9.86388 52.7517 9.98372 52.9103 10.1494C53.0724 10.315 53.1958 10.5301 53.2804 10.7944C53.365 11.0553 53.4073 11.3742 53.4073 11.7514V15.5H52.4239V11.7408C52.4239 11.4412 52.3798 11.2015 52.2917 11.0218C52.2036 10.8385 52.0749 10.7063 51.9057 10.6252C51.7366 10.5406 51.5286 10.4983 51.2819 10.4983C51.0387 10.4983 50.8166 10.5494 50.6157 10.6517C50.4183 10.7539 50.2473 10.8949 50.1028 11.0746C49.9618 11.2544 49.8508 11.4606 49.7697 11.6932C49.6922 11.9223 49.6534 12.1656 49.6534 12.4229ZM57.2669 15.6057C56.8686 15.6057 56.5073 15.5388 56.1831 15.4048C55.8623 15.2674 55.5856 15.0753 55.353 14.8285C55.1239 14.5818 54.9476 14.2892 54.8243 13.9509C54.7009 13.6125 54.6392 13.2424 54.6392 12.8406V12.6185C54.6392 12.1532 54.7079 11.7391 54.8454 11.376C54.9829 11.0094 55.1697 10.6992 55.4059 10.4455C55.642 10.1917 55.9099 9.99958 56.2095 9.86916C56.5091 9.73875 56.8193 9.67354 57.14 9.67354C57.5489 9.67354 57.9014 9.74403 58.1975 9.88503C58.4971 10.026 58.7421 10.2234 58.9324 10.4772C59.1227 10.7274 59.2637 11.0235 59.3554 11.3654C59.447 11.7038 59.4928 12.0739 59.4928 12.4757V12.9146H55.2208V12.1162H58.5147V12.0422C58.5006 11.7884 58.4477 11.5417 58.3561 11.302C58.268 11.0623 58.127 10.8649 57.9331 10.7098C57.7393 10.5547 57.4749 10.4772 57.14 10.4772C56.918 10.4772 56.7135 10.5248 56.5267 10.6199C56.3399 10.7116 56.1795 10.8491 56.0456 11.0323C55.9117 11.2156 55.8077 11.4395 55.7337 11.7038C55.6596 11.9682 55.6226 12.2731 55.6226 12.6185V12.8406C55.6226 13.112 55.6596 13.3675 55.7337 13.6072C55.8112 13.8434 55.9222 14.0513 56.0667 14.2311C56.2148 14.4108 56.3928 14.5518 56.6008 14.6541C56.8122 14.7563 57.0519 14.8074 57.3198 14.8074C57.6652 14.8074 57.9578 14.7369 58.1975 14.5959C58.4372 14.4549 58.6469 14.2663 58.8267 14.0302L59.4188 14.5007C59.2954 14.6875 59.1386 14.8655 58.9483 15.0347C58.7579 15.2039 58.5235 15.3414 58.2451 15.4471C57.9701 15.5529 57.6441 15.6057 57.2669 15.6057ZM63.03 9.77928V10.5301H59.937V9.77928H63.03ZM60.9838 8.38876H61.9619V14.083C61.9619 14.2769 61.9919 14.4232 62.0518 14.5219C62.1117 14.6206 62.1893 14.6858 62.2845 14.7175C62.3796 14.7492 62.4818 14.7651 62.5911 14.7651C62.6722 14.7651 62.7568 14.758 62.8449 14.7439C62.9365 14.7263 63.0053 14.7122 63.0511 14.7016L63.0564 15.5C62.9788 15.5247 62.8766 15.5476 62.7497 15.5687C62.6264 15.5934 62.4766 15.6057 62.3003 15.6057C62.0606 15.6057 61.8403 15.5582 61.6394 15.463C61.4385 15.3678 61.2781 15.2092 61.1583 14.9871C61.042 14.7616 60.9838 14.4584 60.9838 14.0778V8.38876Z" fill="#777777"/>
</svg>
