<svg width="20" height="20" viewBox="0 0 20 20" fill="none" xmlns="http://www.w3.org/2000/svg">
<path d="M10.005 11.25C10.6954 11.25 11.255 10.6904 11.255 10C11.255 9.30964 10.6954 8.75 10.005 8.75C9.31468 8.75 8.75504 9.30964 8.75504 10C8.75504 10.6904 9.31468 11.25 10.005 11.25Z" fill="#F3F5F7"/>
<path d="M5.00504 11.25C5.69539 11.25 6.25504 10.6904 6.25504 10C6.25504 9.30964 5.69539 8.75 5.00504 8.75C4.31468 8.75 3.75504 9.30964 3.75504 10C3.75504 10.6904 4.31468 11.25 5.00504 11.25Z" fill="#F3F5F7"/>
<path d="M15.005 11.25C15.6954 11.25 16.255 10.6904 16.255 10C16.255 9.30964 15.6954 8.75 15.005 8.75C14.3147 8.75 13.755 9.30964 13.755 10C13.755 10.6904 14.3147 11.25 15.005 11.25Z" fill="#F3F5F7"/>
</svg>
