<svg width="23" height="23" viewBox="0 0 23 23" fill="none" xmlns="http://www.w3.org/2000/svg">
<rect x="1.66992" y="1.66992" width="20" height="20" rx="10" fill="#6E3DEF"/>
<rect x="1.66992" y="1.66992" width="20" height="20" rx="10" stroke="#101010" strokeWidth="2"/>
<path d="M8.48275 15.6699C8.22924 15.6699 8.0296 15.6165 7.88382 15.5097C7.74122 15.4059 7.66992 15.262 7.66992 15.0781C7.66992 14.7934 7.76182 14.4923 7.94562 14.1749C8.12942 13.8575 8.39561 13.5609 8.74419 13.285C9.09278 13.0062 9.51266 12.7808 10.0039 12.6087C10.4982 12.4337 11.0528 12.3462 11.6675 12.3462C12.2855 12.3462 12.84 12.4337 13.3312 12.6087C13.8256 12.7808 14.2455 13.0062 14.5909 13.285C14.9395 13.5609 15.2056 13.8575 15.3894 14.1749C15.5764 14.4923 15.6699 14.7934 15.6699 15.0781C15.6699 15.262 15.597 15.4059 15.4512 15.5097C15.3086 15.6165 15.1106 15.6699 14.8571 15.6699H8.48275ZM11.6723 11.5498C11.3332 11.5498 11.0195 11.4638 10.7311 11.2917C10.4428 11.1167 10.2098 10.8824 10.0324 10.5887C9.85808 10.2921 9.77093 9.95987 9.77093 9.59206C9.77093 9.23017 9.85808 8.90388 10.0324 8.61319C10.2098 8.3225 10.4428 8.09261 10.7311 7.92354C11.0195 7.75446 11.3332 7.66992 11.6723 7.66992C12.0114 7.66992 12.3251 7.75298 12.6135 7.91909C12.9018 8.0852 13.1332 8.3136 13.3075 8.60429C13.4849 8.89202 13.5736 9.21831 13.5736 9.58316C13.5736 9.95394 13.4849 10.2876 13.3075 10.5843C13.1332 10.8809 12.9018 11.1167 12.6135 11.2917C12.3251 11.4638 12.0114 11.5498 11.6723 11.5498Z" fill="white"/>
</svg>
