<svg width="25" height="24" viewBox="0 0 25 24" fill="none" xmlns="http://www.w3.org/2000/svg">
<path d="M12.67 2.982C15.607 2.982 15.955 2.993 17.115 3.046C17.8124 3.05442 18.5031 3.18262 19.157 3.425C19.6349 3.60135 20.0672 3.88258 20.422 4.248C20.7875 4.60286 21.0687 5.03513 21.245 5.513C21.4874 6.16693 21.6156 6.85765 21.624 7.555C21.677 8.715 21.688 9.063 21.688 12C21.688 14.937 21.677 15.285 21.624 16.445C21.6156 17.1424 21.4874 17.8331 21.245 18.487C21.062 18.9615 20.7817 19.3924 20.4221 19.752C20.0625 20.1117 19.6315 20.392 19.157 20.575C18.5031 20.8174 17.8124 20.9456 17.115 20.954C15.955 21.007 15.607 21.018 12.67 21.018C9.73304 21.018 9.38504 21.007 8.22504 20.954C7.52736 20.9457 6.83629 20.8175 6.18204 20.575C5.70453 20.3985 5.27262 20.1173 4.91804 19.752C4.55262 19.3971 4.27139 18.9649 4.09504 18.487C3.85266 17.8331 3.72447 17.1424 3.71604 16.445C3.66304 15.285 3.65204 14.937 3.65204 12C3.65204 9.063 3.66304 8.715 3.71604 7.555C3.72447 6.85765 3.85266 6.16693 4.09504 5.513C4.27139 5.03513 4.55262 4.60286 4.91804 4.248C5.27291 3.88258 5.70517 3.60135 6.18304 3.425C6.83697 3.18262 7.52769 3.05442 8.22504 3.046C9.38504 2.993 9.73304 2.982 12.67 2.982ZM12.67 1C9.68304 1 9.30804 1.013 8.13504 1.066C7.22256 1.0842 6.31977 1.25699 5.46504 1.577C4.73071 1.85348 4.06556 2.2869 3.51604 2.847C2.95642 3.39633 2.52336 4.06111 2.24704 4.795C1.92737 5.64978 1.75493 6.55257 1.73704 7.465C1.68204 8.638 1.67004 9.013 1.67004 12C1.67004 14.987 1.68304 15.362 1.73604 16.535C1.75425 17.4475 1.92703 18.3503 2.24704 19.205C2.52352 19.9393 2.95694 20.6045 3.51704 21.154C4.06637 21.7136 4.73116 22.1467 5.46504 22.423C6.31983 22.7427 7.22262 22.9151 8.13504 22.933C9.30804 22.988 9.68304 23 12.67 23C15.657 23 16.032 22.987 17.205 22.934C18.1175 22.9158 19.0203 22.743 19.875 22.423C20.606 22.1404 21.2699 21.7081 21.824 21.154C22.3782 20.5998 22.8104 19.936 23.093 19.205C23.4127 18.3502 23.5852 17.4474 23.603 16.535C23.658 15.362 23.67 14.987 23.67 12C23.67 9.013 23.657 8.638 23.604 7.465C23.5858 6.55252 23.4131 5.64972 23.093 4.795C22.8166 4.06067 22.3831 3.39552 21.823 2.846C21.2737 2.28638 20.6089 1.85331 19.875 1.577C19.0203 1.25733 18.1175 1.08488 17.205 1.067C16.032 1.012 15.657 1 12.67 1ZM12.67 6.351C11.5528 6.351 10.4606 6.68231 9.53163 7.30303C8.60265 7.92375 7.87861 8.806 7.45105 9.83822C7.02349 10.8704 6.91162 12.0063 7.12959 13.1021C7.34756 14.1979 7.88557 15.2044 8.6756 15.9944C9.46562 16.7845 10.4722 17.3225 11.568 17.5405C12.6638 17.7584 13.7996 17.6466 14.8318 17.219C15.864 16.7914 16.7463 16.0674 17.367 15.1384C17.9877 14.2094 18.319 13.1173 18.319 12C18.319 10.5018 17.7239 9.06495 16.6645 8.00555C15.6051 6.94616 14.1683 6.351 12.67 6.351ZM12.67 15.667C11.9448 15.667 11.2358 15.4519 10.6328 15.049C10.0297 14.6461 9.55972 14.0734 9.28218 13.4033C9.00463 12.7332 8.93201 11.9959 9.0735 11.2846C9.215 10.5733 9.56424 9.91988 10.0771 9.40704C10.5899 8.8942 11.2433 8.54495 11.9546 8.40346C12.666 8.26197 13.4033 8.33459 14.0733 8.61213C14.7434 8.88968 15.3161 9.35969 15.719 9.96272C16.122 10.5658 16.337 11.2747 16.337 12C16.337 12.9725 15.9507 13.9053 15.263 14.593C14.5753 15.2807 13.6426 15.667 12.67 15.667ZM18.542 4.808C18.281 4.808 18.0258 4.88542 17.8087 5.03046C17.5916 5.1755 17.4224 5.38166 17.3225 5.62286C17.2226 5.86406 17.1965 6.12946 17.2474 6.38552C17.2983 6.64157 17.4241 6.87678 17.6087 7.06138C17.7933 7.24599 18.0285 7.3717 18.2845 7.42264C18.5406 7.47357 18.806 7.44743 19.0472 7.34752C19.2884 7.24761 19.4945 7.07843 19.6396 6.86135C19.7846 6.64428 19.862 6.38907 19.862 6.128C19.862 5.77791 19.723 5.44217 19.4754 5.19462C19.2279 4.94707 18.8921 4.808 18.542 4.808Z" fill="#F3F5F7"/>
</svg>
